<svg id="Group_4" data-name="Group 4" xmlns="http://www.w3.org/2000/svg" width="511.999" height="512" viewBox="0 0 511.999 512">
  <defs>
    <style>
      .cls-1 {
        fill: #ffb606;
      }
    </style>
  </defs>
  <g id="Group_3" data-name="Group 3">
    <path id="Path_7" data-name="Path 7" class="cls-1" d="M281.6,119.467A8.536,8.536,0,0,0,273.067,128v51.2a8.536,8.536,0,0,0,8.533,8.533h34.133a8.536,8.536,0,0,0,8.533-8.533V128a8.536,8.536,0,0,0-8.533-8.533Zm25.6,51.2H290.133V136.534H307.2Z"/>
    <path id="Path_8" data-name="Path 8" class="cls-1" d="M59.733,221.867a8.536,8.536,0,0,0,8.533-8.533v-128H443.733v128a8.533,8.533,0,1,0,17.066,0V76.8a8.536,8.536,0,0,0-8.533-8.533H256v-51.2h42.667V34.134h-25.6a8.533,8.533,0,0,0,0,17.066H307.2a8.536,8.536,0,0,0,8.533-8.533V8.533A8.536,8.536,0,0,0,307.2,0H247.467a8.536,8.536,0,0,0-8.533,8.533V68.266H59.734A8.536,8.536,0,0,0,51.2,76.8V213.332A8.535,8.535,0,0,0,59.733,221.867Z"/>
    <path id="Path_9" data-name="Path 9" class="cls-1" d="M366.933,119.467A8.536,8.536,0,0,0,358.4,128v51.2a8.536,8.536,0,0,0,8.533,8.533h34.133A8.536,8.536,0,0,0,409.6,179.2V128a8.536,8.536,0,0,0-8.533-8.533Zm25.6,51.2H375.466V136.534h17.067Z"/>
    <path id="Path_10" data-name="Path 10" class="cls-1" d="M503.467,494.933H8.533a8.533,8.533,0,0,0,0,17.067H503.466a8.533,8.533,0,0,0,0-17.067Z"/>
    <path id="Path_11" data-name="Path 11" class="cls-1" d="M315.733,443.733a8.536,8.536,0,0,0,8.533-8.533V315.733a8.512,8.512,0,0,0-2.5-6.033c-.8-.8-20.1-19.567-65.766-19.567S191.036,308.9,190.234,309.7a8.513,8.513,0,0,0-2.5,6.033V435.2a8.533,8.533,0,0,0,17.066,0V319.863c5.222-3.584,18.748-10.88,42.667-12.348v85.018a8.533,8.533,0,1,0,0,17.066v25.6a8.533,8.533,0,0,0,17.066,0V409.6a8.533,8.533,0,1,0,0-17.066V307.515c23.97,1.476,37.495,8.789,42.667,12.339V435.2A8.536,8.536,0,0,0,315.733,443.733Z"/>
    <path id="Path_12" data-name="Path 12" class="cls-1" d="M153.6,469.333a8.536,8.536,0,0,0,8.533,8.533H349.866a8.533,8.533,0,0,0,0-17.066H162.133A8.536,8.536,0,0,0,153.6,469.333Z"/>
    <path id="Path_13" data-name="Path 13" class="cls-1" d="M42.667,460.8a8.533,8.533,0,1,0,0,17.066H128a8.533,8.533,0,1,0,0-17.066h-8.533V256H392.534V460.8H384a8.533,8.533,0,0,0,0,17.066h85.333a8.533,8.533,0,1,0,0-17.066H460.8V256h8.533a8.533,8.533,0,0,0,0-17.066H42.667a8.533,8.533,0,0,0,0,17.066H51.2V460.8ZM409.6,256h34.133V460.8H409.6ZM68.267,256H102.4V460.8H68.267Z"/>
    <path id="Path_14" data-name="Path 14" class="cls-1" d="M110.933,119.467A8.536,8.536,0,0,0,102.4,128v51.2a8.536,8.536,0,0,0,8.533,8.533h34.133A8.536,8.536,0,0,0,153.6,179.2V128a8.536,8.536,0,0,0-8.533-8.533Zm25.6,51.2H119.466V136.534h17.067Z"/>
    <path id="Path_15" data-name="Path 15" class="cls-1" d="M196.267,119.467A8.536,8.536,0,0,0,187.734,128v51.2a8.536,8.536,0,0,0,8.533,8.533H230.4a8.536,8.536,0,0,0,8.533-8.533V128a8.536,8.536,0,0,0-8.533-8.533Zm25.6,51.2H204.8V136.534h17.067Z"/>
  </g>
</svg>
